<?xml version="1.0" encoding="UTF-8"?>
<svg version="1.1" xmlns="http://www.w3.org/2000/svg" width="500" height="500">
<path d="M0 0 C1.19737793 0.29801514 1.19737793 0.29801514 2.41894531 0.60205078 C28.23155265 7.26224228 50.04185018 19.76741396 71 36 C71.62519531 36.4842041 72.25039063 36.9684082 72.89453125 37.46728516 C74.30466759 38.59465118 75.65955945 39.79059611 77 41 C77 41.66 77 42.32 77 43 C77.66 43 78.32 43 79 43 C79 43.66 79 44.32 79 45 C79.99 45.33 80.98 45.66 82 46 C83.50323315 47.6292184 84.9314804 49.32847366 86.3125 51.0625 C87.05113281 51.98160156 87.78976562 52.90070313 88.55078125 53.84765625 C89.35902344 54.88792969 90.16726563 55.92820313 91 57 C91.47058838 57.60481201 91.94117676 58.20962402 92.42602539 58.83276367 C116.45195848 90.21588297 129.49383448 130.38639841 127 170 C125.39948336 171.60051664 123.71153878 171.12731472 121.49609375 171.12939453 C120.05955444 171.13412277 120.05955444 171.13412277 118.59399414 171.13894653 C117.55235107 171.1369223 116.51070801 171.13489807 115.4375 171.1328125 C114.37587646 171.13376923 113.31425293 171.13472595 112.22045898 171.13571167 C109.97086528 171.13639364 107.72126963 171.13453819 105.47167969 171.13037109 C102.01492929 171.1250231 98.55830883 171.13031554 95.1015625 171.13671875 C92.92187471 171.13605797 90.742187 171.13477682 88.5625 171.1328125 C87.52085693 171.13483673 86.47921387 171.13686096 85.40600586 171.13894653 C84.44831299 171.13579437 83.49062012 171.13264221 82.50390625 171.12939453 C81.65642822 171.12859894 80.8089502 171.12780334 79.93579102 171.12698364 C78 171 78 171 77 170 C76.83099127 168.17576671 76.72332236 166.34580319 76.640625 164.515625 C74.9654715 132.80957817 67.45730187 99.89329276 45 76 C44.30519531 75.23816406 43.61039063 74.47632813 42.89453125 73.69140625 C36.87188925 67.36159853 30.12507176 62.0185807 23 57 C22.43571289 56.60248535 21.87142578 56.2049707 21.29003906 55.79541016 C-0.84950508 40.57683084 -28.82903635 35.61299684 -55.125 40.3125 C-57.76372713 40.82942604 -60.37688483 41.40409061 -63 42 C-63.88429687 42.19335938 -64.76859375 42.38671875 -65.6796875 42.5859375 C-93.61774872 49.82913856 -116.96236587 70.83710591 -131.79052734 94.93359375 C-138.02975856 105.5934349 -142.67511242 117.12360231 -146 129 C-146.3196875 130.12277344 -146.639375 131.24554688 -146.96875 132.40234375 C-155.05061779 166.86253003 -146.64360845 202.80231925 -128.75 232.625 C-124.15321673 239.60451955 -118.57685928 245.79895676 -113 252 C-112.09121094 253.03640625 -112.09121094 253.03640625 -111.1640625 254.09375 C-92.92074371 273.72615397 -66.12294475 282.45885859 -40.08984375 283.75390625 C-37 284 -37 284 -35 285 C-34.97535295 290.67830078 -34.95716538 296.35657069 -34.94506836 302.03491211 C-34.94002744 303.96818585 -34.93319481 305.90145576 -34.92456055 307.8347168 C-34.91248435 310.60726872 -34.90676943 313.37977041 -34.90234375 316.15234375 C-34.89718246 317.02213364 -34.89202118 317.89192352 -34.88670349 318.78807068 C-34.88650815 320.85905814 -34.93791832 322.92994324 -35 325 C-36 326 -36 326 -39.84765625 326.01953125 C-87.05884914 324.44428046 -126.04560716 306.41786174 -158.5625 272.3125 C-173.76571622 255.57101104 -186.1933653 234.92803079 -192 213 C-192.21350098 212.21689453 -192.42700195 211.43378906 -192.64697266 210.62695312 C-204.12639674 167.9166226 -201.91427324 119.2361579 -179.84155273 80.09326172 C-171.81352421 66.53664903 -161.8900964 54.33459013 -151 43 C-150.09314453 41.98099609 -150.09314453 41.98099609 -149.16796875 40.94140625 C-113.90869725 2.65763742 -49.62053969 -12.43306184 0 0 Z " fill="#F0572D" transform="translate(275,94)"/>
<path d="M0 0 C3.88103232 1.32067837 6.24286282 2.87703281 9.11254883 5.7878418 C9.88717972 6.56592697 10.66181061 7.34401215 11.45991516 8.14567566 C12.69598763 9.40967949 12.69598763 9.40967949 13.95703125 10.69921875 C14.81882492 11.56762894 15.68061859 12.43603912 16.56852722 13.33076477 C19.32370475 16.10933759 22.06854858 18.89784412 24.8125 21.6875 C27.54739367 24.45760172 30.28445367 27.22551102 33.02433777 29.99067688 C34.72726091 31.71039948 36.42707729 33.43320605 38.12324524 35.15959167 C42.37033173 39.45953662 46.6852164 43.59100994 51.28479004 47.51335144 C53.88236036 49.76478087 56.27258729 52.17835851 58.6875 54.625 C59.57824219 55.52476562 60.46898437 56.42453125 61.38671875 57.3515625 C62.24910156 58.22554688 63.11148438 59.09953125 64 60 C64.7425 60.7425 65.485 61.485 66.25 62.25 C68.62704176 64.62704176 70.99611009 67.01157937 73.36328125 69.3984375 C75.01295516 71.05735698 76.66269658 72.71620932 78.3125 74.375 C79.53743164 75.6125 79.53743164 75.6125 80.78710938 76.875 C85.14796452 81.25322907 89.57763917 85.46305722 94.26489258 89.48974609 C96.50579707 91.44025055 98.60465758 93.50750771 100.6875 95.625 C101.39261719 96.33914063 102.09773437 97.05328125 102.82421875 97.7890625 C103.54222656 98.51867187 104.26023437 99.24828125 105 100 C106.14734619 101.14734619 106.14734619 101.14734619 107.31787109 102.31787109 C109.91444162 104.91444162 112.50289578 107.51884624 115.08984375 110.125 C116.54184469 111.58437484 117.99432701 113.04326866 119.44702148 114.50195312 C120.43978358 115.49975628 121.43164799 116.4984534 122.42260742 117.49804688 C129.9136136 125.07522262 129.9136136 125.07522262 138 132 C137.56502847 136.7846868 135.34945773 139.31038473 132.125 142.625 C131.61195313 143.16334473 131.09890625 143.70168945 130.5703125 144.25634766 C129.40022693 145.47620249 128.22435223 146.69052055 127.04394531 147.90039062 C125.56686752 149.41769462 124.09854095 150.94353459 122.63574219 152.47460938 C120.10481421 155.12231922 117.55511015 157.7506351 115 160.375 C114.17516113 161.23818848 113.35032227 162.10137695 112.50048828 162.99072266 C111.71657715 163.78526855 110.93266602 164.57981445 110.125 165.3984375 C109.42632812 166.11692871 108.72765625 166.83541992 108.0078125 167.57568359 C106 169 106 169 103.84960938 168.80273438 C101.66507601 167.85464228 100.25716587 166.73573538 98.5 165.125 C97.79617188 164.48433594 97.09234375 163.84367188 96.3671875 163.18359375 C95.58601562 162.46300781 94.80484375 161.74242187 94 161 C93.15695312 160.24847656 92.31390625 159.49695313 91.4453125 158.72265625 C84.96413858 152.89678108 78.73483623 146.83926593 72.5625 140.6875 C71.79309082 139.92268311 71.02368164 139.15786621 70.23095703 138.36987305 C67.08986316 135.22017061 63.99770199 132.08941994 61.1796875 128.64453125 C59.38661235 126.46906193 57.73298302 124.76445732 55.5625 123 C50.67561183 118.8541179 46.23132848 114.28320415 41.74829102 109.7109375 C41.16362061 109.11796875 40.5789502 108.525 39.9765625 107.9140625 C39.45143066 107.3773291 38.92629883 106.8405957 38.38525391 106.28759766 C37.0089621 104.88723997 37.0089621 104.88723997 35 104 C35 103.34 35 102.68 35 102 C33.515 101.505 33.515 101.505 32 101 C32 100.34 32 99.68 32 99 C31.34 99 30.68 99 30 99 C30 98.34 30 97.68 30 97 C28.515 96.505 28.515 96.505 27 96 C27 95.34 27 94.68 27 94 C26.34 94 25.68 94 25 94 C25 93.34 25 92.68 25 92 C24.34 92 23.68 92 23 92 C21.29952196 90.23058366 19.79194247 88.33556575 18.2421875 86.43359375 C16.36350586 84.39453685 14.49932609 82.67258091 12.39648438 80.88061523 C7.86473857 76.94011549 3.63515206 72.74499417 -0.5859375 68.4765625 C-1.36893219 67.68978119 -2.15192688 66.90299988 -2.95864868 66.09237671 C-5.43322766 63.60568365 -7.90450839 61.11575341 -10.375 58.625 C-13.65079927 55.32267604 -16.92985174 52.02363303 -20.2109375 48.7265625 C-20.96297455 47.96622711 -21.7150116 47.20589172 -22.48983765 46.42251587 C-23.18461212 45.72443817 -23.8793866 45.02636047 -24.59521484 44.30712891 C-25.20618011 43.69092682 -25.81714539 43.07472473 -26.44662476 42.43984985 C-27.95758091 40.90452401 -27.95758091 40.90452401 -30 40 C-30 39.34 -30 38.68 -30 38 C-30.639375 37.7525 -31.27875 37.505 -31.9375 37.25 C-34 36 -34 36 -34.62890625 33.921875 C-34.75136719 33.28765625 -34.87382812 32.6534375 -35 32 C-33.71416016 31.56300781 -33.71416016 31.56300781 -32.40234375 31.1171875 C-25.3627979 28.59342698 -20.39554426 26.15574229 -15 21 C-14.34 21 -13.68 21 -13 21 C-13 20.34 -13 19.68 -13 19 C-12.34 19 -11.68 19 -11 19 C-10.7421875 18.4534375 -10.484375 17.906875 -10.21875 17.34375 C-8.28392627 13.62293513 -5.9361073 10.17264007 -3.65625 6.65625 C-2.29574622 4.47430997 -1.09547045 2.32239735 0 0 Z " fill="#F1572D" transform="translate(270,250)"/>
<path d="M0 0 C0 0.66 0 1.32 0 2 C0.89525391 2.38091797 0.89525391 2.38091797 1.80859375 2.76953125 C7.61299005 6.02868425 10.83058775 12.94848161 13 19 C15.76399183 30.38921455 14.74199704 41.75213029 9 52 C6.27521332 55.6614321 3.2965581 58.85087294 0 62 C-0.50402344 62.52335937 -1.00804687 63.04671875 -1.52734375 63.5859375 C-8.88273823 70.62153222 -18.68332052 71.6305059 -28.36401367 71.54052734 C-35.08660652 71.26457626 -40.30696527 69.67112223 -46 66 C-47.19689453 65.23816406 -47.19689453 65.23816406 -48.41796875 64.4609375 C-56.54308249 58.71755727 -62.40660628 50.63705965 -65 41 C-65.41623613 37.86162027 -65.47765419 34.78793936 -65.4375 31.625 C-65.42992676 30.78864014 -65.42235352 29.95228027 -65.41455078 29.09057617 C-65.24483754 22.72632959 -64.34945319 17.51613072 -61 12 C-60.5875 11.31035156 -60.175 10.62070313 -59.75 9.91015625 C-52.65753888 -0.58749218 -42.90207899 -5.58902027 -31 -8.8125 C-19.98183576 -9.50113526 -8.71034271 -7.06244003 0 0 Z " fill="#F1582C" transform="translate(250,204)"/>
<path d="M0 0 C10.17243585 15.25865377 9.87762179 42.22305636 9 60 C7.39948336 61.60051664 5.71153878 61.12731472 3.49609375 61.12939453 C2.05955444 61.13412277 2.05955444 61.13412277 0.59399414 61.13894653 C-0.44764893 61.1369223 -1.48929199 61.13489807 -2.5625 61.1328125 C-3.62412354 61.13376923 -4.68574707 61.13472595 -5.77954102 61.13571167 C-8.02913472 61.13639364 -10.27873037 61.13453819 -12.52832031 61.13037109 C-15.98507071 61.1250231 -19.44169117 61.13031554 -22.8984375 61.13671875 C-25.07812529 61.13605797 -27.257813 61.13477682 -29.4375 61.1328125 C-30.47914307 61.13483673 -31.52078613 61.13686096 -32.59399414 61.13894653 C-33.55168701 61.13579437 -34.50937988 61.13264221 -35.49609375 61.12939453 C-36.34357178 61.12859894 -37.1910498 61.12780334 -38.06420898 61.12698364 C-40 61 -40 61 -41 60 C-41.18112313 58.14088558 -41.30049041 56.27570398 -41.39453125 54.41015625 C-41.4610791 53.240896 -41.52762695 52.07163574 -41.59619141 50.86694336 C-41.66757324 49.61147705 -41.73895508 48.35601074 -41.8125 47.0625 C-42.45126218 36.83775176 -43.63342336 27.16054414 -46.1953125 17.24609375 C-47 14 -47 14 -47 11 C-46.34 11 -45.68 11 -45 11 C-43.80712589 14.87684087 -43 17.91621923 -43 22 C-42.34 22 -41.68 22 -41 22 C-38.33877446 34.09851274 -39 46.72205073 -39 59 C-24.15 59 -9.3 59 6 59 C5.66750159 34.28418918 5.66750159 34.28418918 0.59765625 10.265625 C-0.3250394 6.76782451 -0.19985939 3.59746898 0 0 Z " fill="#A4595C" transform="translate(393,204)"/>
<path d="M0 0 C6.22964615 -0.02529951 12.45927912 -0.04284549 18.68896484 -0.05493164 C20.80941259 -0.05996872 22.92985685 -0.06679859 25.05029297 -0.07543945 C28.09343322 -0.08753234 31.13652766 -0.09323447 34.1796875 -0.09765625 C35.13181122 -0.10281754 36.08393494 -0.10797882 37.06491089 -0.11329651 C37.94567291 -0.11337204 38.82643494 -0.11344757 39.73388672 -0.11352539 C40.89970779 -0.11685631 40.89970779 -0.11685631 42.08908081 -0.12025452 C44 0 44 0 46 1 C48.82043726 1.27420918 51.64053047 1.4461907 54.46875 1.62109375 C57 2 57 2 59 4 C60.65622661 4.69219623 62.32459336 5.35561283 64 6 C66.54998117 7.26123876 69.07295321 8.56792794 71.59765625 9.87890625 C73.7482449 10.88251429 75.68410504 11.52398464 78 12 C78 12.66 78 13.32 78 14 C78.763125 14.28875 79.52625 14.5775 80.3125 14.875 C83 16 83 16 86 18 C86 18.66 86 19.32 86 20 C86.721875 20.04125 87.44375 20.0825 88.1875 20.125 C91.461223 21.1434916 92.56633571 22.62047651 94.59765625 25.30078125 C97.03687717 28.2563832 100.03508903 30.59047581 103 33 C102.505 33.99 102.505 33.99 102 35 C101.06994141 34.09121094 101.06994141 34.09121094 100.12109375 33.1640625 C79.62365002 13.77055679 54.06349921 1.79008474 25.5625 1.8125 C24.70301758 1.81185547 23.84353516 1.81121094 22.95800781 1.81054688 C14.54691171 1.8785528 6.31516754 2.79365445 -2 4 C-1.34 2.68 -0.68 1.36 0 0 Z " fill="#AE5958" transform="translate(214,131)"/>
<path d="M0 0 C1.16861572 -0.00250763 1.16861572 -0.00250763 2.36083984 -0.00506592 C32.29911766 -0.00892156 32.29911766 -0.00892156 40.1875 5.25 C38.70918779 5.44412181 37.22980684 5.63012131 35.75 5.8125 C34.92628906 5.91691406 34.10257812 6.02132812 33.25390625 6.12890625 C32.23103516 6.18884766 32.23103516 6.18884766 31.1875 6.25 C30.6925 5.755 30.6925 5.755 30.1875 5.25 C28.17155418 5.01572222 26.149026 4.83663876 24.125 4.6875 C22.46791016 4.56181641 22.46791016 4.56181641 20.77734375 4.43359375 C19.92269531 4.37300781 19.06804687 4.31242187 18.1875 4.25 C18.1875 3.59 18.1875 2.93 18.1875 2.25 C13.42256458 2.36970072 8.65777807 2.49401541 3.89306641 2.62231445 C2.27753841 2.66520031 0.66197842 2.70689992 -0.95361328 2.74731445 C-18.58844564 2.96460404 -18.58844564 2.96460404 -35.8125 6.25 C-39.13818648 6.69211489 -42.46772213 6.99426246 -45.8125 7.25 C-43.58812185 5.02562185 -42.73575327 4.82911898 -39.7421875 4.21484375 C-38.9275 4.04533203 -38.1128125 3.87582031 -37.2734375 3.70117188 C-36.42007813 3.53166016 -35.56671875 3.36214844 -34.6875 3.1875 C-33.85734375 3.01412109 -33.0271875 2.84074219 -32.171875 2.66210938 C-21.41056653 0.46093264 -10.95465264 0.01232857 0 0 Z " fill="#97565E" transform="translate(237.8125,90.75)"/>
<path d="M0 0 C1.19753906 0.27714844 2.39507812 0.55429687 3.62890625 0.83984375 C12.85623117 2.91330369 21.73369108 4.46790009 31.19140625 4.82421875 C34 5 34 5 36 6 C36 19.2 36 32.4 36 46 C35.34 46 34.68 46 34 46 C33.67 33.46 33.34 20.92 33 8 C25.08 7.34 17.16 6.68 9 6 C9 5.34 9 4.68 9 4 C6.69 4 4.38 4 2 4 C2 3.34 2 2.68 2 2 C1.34 2 0.68 2 0 2 C0 1.34 0 0.68 0 0 Z " fill="#8D5263" transform="translate(204,373)"/>
<path d="M0 0 C1.41750563 0.11509661 2.83401169 0.24253658 4.25 0.375 C5.03890625 0.44460938 5.8278125 0.51421875 6.640625 0.5859375 C9.085877 1.01507113 10.84836903 1.78600638 13 3 C13 3.66 13 4.32 13 5 C14.175625 5.144375 15.35125 5.28875 16.5625 5.4375 C18.04174516 5.62437973 19.52091043 5.81189279 21 6 C22.9490625 6.2475 22.9490625 6.2475 24.9375 6.5 C28 7 28 7 29 8 C31.32817964 8.36760731 33.6618385 8.70241581 36 9 C36 9.66 36 10.32 36 11 C37.423125 10.9690625 37.423125 10.9690625 38.875 10.9375 C42 11 42 11 44 12 C45.3734635 12.15004973 46.7528526 12.24838006 48.1328125 12.31640625 C48.93847656 12.35830078 49.74414062 12.40019531 50.57421875 12.44335938 C51.41597656 12.48267578 52.25773437 12.52199219 53.125 12.5625 C54.39923828 12.62727539 54.39923828 12.62727539 55.69921875 12.69335938 C57.79928223 12.79954236 59.89961948 12.90028497 62 13 C62.495 13.99 62.495 13.99 63 15 C41.3170649 16.52458137 19.32223181 10.44017562 0 1 C0 0.67 0 0.34 0 0 Z " fill="#B45D5C" transform="translate(168,404)"/>
<path d="M0 0 C0.99 0.495 0.99 0.495 2 1 C2.2734375 3.2734375 2.2734375 3.2734375 2.375 6.375 C3.30150312 21.19904989 6.26234906 40.24273981 14 53 C14 53.99 14 54.98 14 56 C14.66 56 15.32 56 16 56 C17.42500059 59.99000166 18.40075776 63.80530429 19 68 C5.80418828 56.71778031 2.08180686 28.33417692 0 12 C-0.19357013 7.98234433 -0.20538905 4.01649697 0 0 Z " fill="#BB5C55" transform="translate(77,267)"/>
<path d="M0 0 C0.495 0.99 0.495 0.99 1 2 C3.02463255 2.65213292 3.02463255 2.65213292 5 3 C-2.63229824 10.36911554 -12.20385531 11.61427475 -22.3527832 11.546875 C-31.14731442 11.20501512 -37.94487083 8.46986404 -44 2 C-42.24721668 2.22967506 -40.49773637 2.48463689 -38.75 2.75 C-37.77546875 2.88921875 -36.8009375 3.0284375 -35.796875 3.171875 C-33 4 -33 4 -31.21875 6.03125 C-27.78036366 9.08221253 -24.20252656 8.6734722 -19.75 8.75 C-18.90953125 8.77964844 -18.0690625 8.80929687 -17.203125 8.83984375 C-15.1359285 8.91031636 -13.06795967 8.95744939 -11 9 C-11 8.34 -11 7.68 -11 7 C-9.906875 6.855625 -8.81375 6.71125 -7.6875 6.5625 C-4.06877013 6.11711896 -4.06877013 6.11711896 -1 5 C-0.67 3.35 -0.34 1.7 0 0 Z " fill="#81506A" transform="translate(244,264)"/>
<path d="M0 0 C0.66 0.33 1.32 0.66 2 1 C1.34535767 1.61983765 1.34535767 1.61983765 0.67749023 2.25219727 C-3.71147888 6.50829315 -7.43750739 10.93082608 -10.9375 15.9375 C-11.45183594 16.6696875 -11.96617187 17.401875 -12.49609375 18.15625 C-17.47078502 25.40686252 -21.35734507 33.01417958 -25 41 C-25.45375 41.99 -25.9075 42.98 -26.375 44 C-27.27083887 45.99075305 -28.1400619 47.99347777 -29 50 C-29.33 50 -29.66 50 -30 50 C-29.67 46.37 -29.34 42.74 -29 39 C-28.01 39 -27.02 39 -26 39 C-25.7525 38.195625 -25.505 37.39125 -25.25 36.5625 C-23.33478655 31.10414166 -21.21507663 25.82261494 -18 21 C-17.34 21 -16.68 21 -16 21 C-13.78600697 17.20458337 -12.99019802 13.24370579 -12 9 C-10.68 9 -9.36 9 -8 9 C-8 8.01 -8 7.02 -8 6 C-7.01 6 -6.02 6 -5 6 C-4.67 5.01 -4.34 4.02 -4 3 C-1.9375 1.3125 -1.9375 1.3125 0 0 Z " fill="#975260" transform="translate(161,163)"/>
<path d="M0 0 C0.66 0.33 1.32 0.66 2 1 C-2.72068966 6.74137931 -2.72068966 6.74137931 -4.6875 8.5625 C-6.44796461 10.49062791 -7.14215851 12.55845113 -8 15 C-8.33 15 -8.66 15 -9 15 C-9 13.35 -9 11.7 -9 10 C-9.99 10 -10.98 10 -12 10 C-12.76716851 12.85078091 -12.76716851 12.85078091 -13 16 C-11.68681738 17.89958081 -11.68681738 17.89958081 -10 19 C-10.33 19.99 -10.66 20.98 -11 22 C-13 20.625 -13 20.625 -15 19 C-15 18.34 -15 17.68 -15 17 C-15.639375 16.7525 -16.27875 16.505 -16.9375 16.25 C-19 15 -19 15 -19.62890625 12.921875 C-19.75136719 12.28765625 -19.87382812 11.6534375 -20 11 C-18.71416016 10.56300781 -18.71416016 10.56300781 -17.40234375 10.1171875 C-10.41615951 7.61255775 -5.26154984 5.26154984 0 0 Z " fill="#B55A55" transform="translate(255,271)"/>
<path d="M0 0 C3.81271791 3.17726492 7.45516471 6.399999 10.9375 9.9375 C13.51837301 12.55807875 16.1450273 15.04395197 18.9375 17.4375 C22.79415561 20.75513485 26.37997656 24.29485505 29.9453125 27.921875 C31.61886588 29.61451834 33.32696818 31.24732609 35.0625 32.875 C37 35 37 35 37 38 C36.67 37.34 36.34 36.68 36 36 C33.47266765 35.34444881 33.47266765 35.34444881 31 35 C31 34.01 31 33.02 31 32 C30.01 32 29.02 32 28 32 C27.7525 31.195625 27.505 30.39125 27.25 29.5625 C26.27761141 26.828919 26.27761141 26.828919 23.875 26.1875 C22.946875 26.0946875 22.946875 26.0946875 22 26 C22 24.68 22 23.36 22 22 C21.071875 21.773125 20.14375 21.54625 19.1875 21.3125 C16 20 16 20 14.71875 17.8359375 C12.43701161 14.07106916 9.47830576 11.34110941 6.3125 8.3125 C4.15464346 6.24636957 2.06655656 4.16089295 0 2 C0 1.34 0 0.68 0 0 Z " fill="#7A4E63" transform="translate(343,320)"/>
<path d="M0 0 C1.37827516 3.78331906 0.62579417 6.59093859 -0.3125 10.4375 C-0.70888672 12.10619141 -0.70888672 12.10619141 -1.11328125 13.80859375 C-1.90244607 16.64889181 -2.84131895 19.29303771 -4 22 C-3.34 22.33 -2.68 22.66 -2 23 C-2.33 24.98 -2.66 26.96 -3 29 C-4.65 29 -6.3 29 -8 29 C-8 31.64 -8 34.28 -8 37 C-8.66 37 -9.32 37 -10 37 C-9.4291259 30.16343459 -8.06591944 23.9457224 -6.125 17.375 C-5.74021484 16.02148438 -5.74021484 16.02148438 -5.34765625 14.640625 C-3.87931428 9.57890343 -2.19293536 4.79294254 0 0 Z " fill="#D55C42" transform="translate(89,187)"/>
<path d="M0 0 C0.9075 0.309375 1.815 0.61875 2.75 0.9375 C5.78000907 2.06503736 5.78000907 2.06503736 8.1875 2.1875 C11.30836124 3.58650676 11.75699416 6.973551 13 10 C13.99 10.33 14.98 10.66 16 11 C16.66 9.02 17.32 7.04 18 5 C18.66 5 19.32 5 20 5 C19.979375 6.0725 19.95875 7.145 19.9375 8.25 C19.98631447 11.17886845 20.18641134 13.25413828 21 16 C21 16.66 21 17.32 21 18 C22.32 18.33 23.64 18.66 25 19 C23.2890625 19.7421875 23.2890625 19.7421875 21 20 C18.7734375 18.4453125 18.7734375 18.4453125 16.375 16.125 C15.50746094 15.30128906 14.63992188 14.47757812 13.74609375 13.62890625 C12.83988281 12.76136719 11.93367188 11.89382813 11 11 C9.15049551 9.34892928 7.29653865 7.70282822 5.4375 6.0625 C1.12307692 2.24615385 1.12307692 2.24615385 0 0 Z " fill="#EC5831" transform="translate(352,399)"/>
<path d="M0 0 C4.29718953 1.38914475 6.70687757 3.38031985 9.8125 6.625 C10.99779297 7.85089844 10.99779297 7.85089844 12.20703125 9.1015625 C12.79871094 9.72804688 13.39039063 10.35453125 14 11 C13.01 11 12.02 11 11 11 C10.1028125 10.071875 10.1028125 10.071875 9.1875 9.125 C6.61575411 6.62673257 4.42169383 5.93318923 1 5 C0.690625 5.94875 0.38125 6.8975 0.0625 7.875 C-1 11 -1 11 -2 13 C-3.32 13 -4.64 13 -6 13 C-6.4021875 13.86625 -6.4021875 13.86625 -6.8125 14.75 C-8.02929189 17.05550043 -9.30333879 19.02056192 -11 21 C-11.66 21 -12.32 21 -13 21 C-13 20.34 -13 19.68 -13 19 C-12.34 19 -11.68 19 -11 19 C-10.7421875 18.4534375 -10.484375 17.906875 -10.21875 17.34375 C-8.28392627 13.62293513 -5.9361073 10.17264007 -3.65625 6.65625 C-2.29574622 4.47430997 -1.09547045 2.32239735 0 0 Z " fill="#8F515E" transform="translate(270,250)"/>
<path d="M0 0 C1.33333333 0.66666667 2.66666667 1.33333333 4 2 C5.0828125 2.495 5.0828125 2.495 6.1875 3 C8 4 8 4 9 6 C9.99 6.33 10.98 6.66 12 7 C12.33 7.66 12.66 8.32 13 9 C15.52733235 9.65555119 15.52733235 9.65555119 18 10 C18 11.65 18 13.3 18 15 C18.99 15.33 19.98 15.66 21 16 C21.268125 16.721875 21.53625 17.44375 21.8125 18.1875 C23.45688719 22.08210124 25.92098566 24.12179094 29 27 C28.67 27.66 28.34 28.32 28 29 C25.26661341 26.29589809 22.53907476 23.58596885 19.8125 20.875 C19.04357422 20.11445313 18.27464844 19.35390625 17.48242188 18.5703125 C14.24697676 15.34875341 11.04613565 12.15996297 8.15625 8.62109375 C6.41335962 6.50247157 4.8402357 4.85072474 2.6875 3.1875 C1.800625 2.465625 0.91375 1.74375 0 1 C0 0.67 0 0.34 0 0 Z " fill="#9F5659" transform="translate(323,370)"/>
<path d="M0 0 C0.99 0.66 1.98 1.32 3 2 C2.58714317 6.90043106 0.16555003 9.49257916 -3.125 12.875 C-3.64545898 13.42438232 -4.16591797 13.97376465 -4.70214844 14.53979492 C-11.33295951 21.49047943 -18.16227062 28.25372174 -25 35 C-25 32 -25 32 -24 29 C-22.7934375 28.5359375 -22.7934375 28.5359375 -21.5625 28.0625 C-18.85842507 27.23391841 -18.85842507 27.23391841 -17.6875 24.875 C-17.3471875 23.946875 -17.3471875 23.946875 -17 23 C-16.34 23 -15.68 23 -15 23 C-14.34 21.68 -13.68 20.36 -13 19 C-12.34 19 -11.68 19 -11 19 C-11 18.34 -11 17.68 -11 17 C-8.52919806 14.38800937 -5.97126628 11.97518451 -3.25 9.625 C-0.49562129 6.41155817 -0.2448015 4.16162543 0 0 Z " fill="#895768" transform="translate(405,380)"/>
<path d="M0 0 C0.66 0 1.32 0 2 0 C3.19287411 3.87684087 4 6.91621923 4 11 C4.66 11 5.32 11 6 11 C7.03987597 15.24945853 7.12989631 19.35927856 7.09765625 23.70703125 C7.0962413 24.43242599 7.09482635 25.15782074 7.09336853 25.90519714 C7.08779931 28.2076745 7.07525261 30.51005235 7.0625 32.8125 C7.05748102 34.37955588 7.05291881 35.9466133 7.04882812 37.51367188 C7.03783998 41.34248589 7.02059673 45.17122611 7 49 C6.67 49 6.34 49 6 49 C5.94054199 47.86908936 5.94054199 47.86908936 5.87988281 46.71533203 C5.12231348 32.96816918 4.25823214 19.60654574 0.8046875 6.24609375 C0 3 0 3 0 0 Z " fill="#925160" transform="translate(346,215)"/>
<path d="M0 0 C5.44414691 0.3798242 7.35446152 2.07403548 11 6 C11.86625 6.515625 12.7325 7.03125 13.625 7.5625 C16.14518748 9.08787663 17.39936188 10.55692076 19 13 C16.525 12.505 16.525 12.505 14 12 C14 11.01 14 10.02 14 9 C9.89776415 7.98459888 9.89776415 7.98459888 6 9 C6 8.34 6 7.68 6 7 C4.02 7.99 4.02 7.99 2 9 C0.4375 7.3125 0.4375 7.3125 -1 5 C-0.6875 2.25 -0.6875 2.25 0 0 Z " fill="#F1582C" transform="translate(271,255)"/>
<path d="M0 0 C3.10495707 1.03498569 3.78649289 1.78649289 6 4 C7.051875 4.495 7.051875 4.495 8.125 5 C10 6 10 6 11 9 C12.31647119 9.69937532 13.65022151 10.36729133 15 11 C15.33 11.66 15.66 12.32 16 13 C16.99 13.33 17.98 13.66 19 14 C19.474375 14.969375 19.94875 15.93875 20.4375 16.9375 C21.65801458 20.09030216 21.65801458 20.09030216 24.0625 21 C26 22 26 22 27.25 25.125 C27.4975 26.07375 27.745 27.0225 28 28 C23.01795861 23.86596566 18.43340038 19.49524962 13.91796875 14.85546875 C12.12995862 12.93978207 12.12995862 12.93978207 10 12 C10 11.34 10 10.68 10 10 C9.01 9.67 8.02 9.34 7 9 C7 8.34 7 7.68 7 7 C6.34 7 5.68 7 5 7 C5 6.34 5 5.68 5 5 C4.01 4.67 3.02 4.34 2 4 C2 3.34 2 2.68 2 2 C1.34 2 0.68 2 0 2 C0 1.34 0 0.68 0 0 Z " fill="#A95450" transform="translate(295,342)"/>
<path d="M0 0 C2.64 0.33 5.28 0.66 8 1 C8 1.66 8 2.32 8 3 C8.763125 3.28875 9.52625 3.5775 10.3125 3.875 C13 5 13 5 16 7 C16 7.66 16 8.32 16 9 C16.721875 9.04125 17.44375 9.0825 18.1875 9.125 C21.461223 10.1434916 22.56633571 11.62047651 24.59765625 14.30078125 C27.03687717 17.2563832 30.03508903 19.59047581 33 22 C32.67 22.66 32.34 23.32 32 24 C31.37996094 23.39414063 30.75992187 22.78828125 30.12109375 22.1640625 C24.77439148 17.10531945 19.32770986 12.63361841 13.1875 8.5625 C12.56609131 8.15016113 11.94468262 7.73782227 11.30444336 7.31298828 C7.64854232 4.93966208 3.94208186 2.87746931 0 1 C0 0.67 0 0.34 0 0 Z " fill="#854D5A" transform="translate(284,142)"/>
<path d="M0 0 C0.83711552 2.36534569 1.18143274 3.54728267 0.23144531 5.91772461 C-0.14915039 6.59327393 -0.52974609 7.26882324 -0.921875 7.96484375 C-3.69382922 13.78427776 -3.44860963 19.22608876 -3.25 25.5625 C-3.23195312 26.66658203 -3.21390625 27.77066406 -3.1953125 28.90820312 C-3.14859048 31.60639981 -3.0831014 34.30272035 -3 37 C-7.66870416 29.99694377 -6.70384405 21.20161697 -6 13 C-4.78707165 8.03331707 -2.81742161 4.22613242 0 0 Z " fill="#9B5662" transform="translate(191,213)"/>
<path d="M0 0 C0 0.66 0 1.32 0 2 C-0.99 2 -1.98 2 -3 2 C-3 2.99 -3 3.98 -3 5 C-3.66 5.66 -4.32 6.32 -5 7 C-5.33 7.66 -5.66 8.32 -6 9 C-7.65 8.67 -9.3 8.34 -11 8 C-11.33 8.99 -11.66 9.98 -12 11 C-13.32303717 11.3721042 -14.65737935 11.70630173 -16 12 C-16.33 12.66 -16.66 13.32 -17 14 C-20.0625 14.625 -20.0625 14.625 -23 15 C-18.45322906 9.82608824 -12.85223393 6.54833724 -7 3 C-6.1028125 2.43539062 -5.205625 1.87078125 -4.28125 1.2890625 C-2 0 -2 0 0 0 Z " fill="#B7594E" transform="translate(161,111)"/>
<path d="M0 0 C2 1 2 1 2.74609375 3.109375 C2.97425781 3.98078125 3.20242187 4.8521875 3.4375 5.75 C4.51583752 9.60670713 5.84215284 12.60909732 8 16 C8 16.99 8 17.98 8 19 C8.66 19 9.32 19 10 19 C11.42500059 22.99000166 12.40075776 26.80530429 13 31 C9.7239395 28.29325489 8.22366485 24.7191673 6.5 20.9375 C6.03871704 19.93638184 6.03871704 19.93638184 5.56811523 18.91503906 C0 6.58235408 0 6.58235408 0 0 Z " fill="#794A68" transform="translate(83,304)"/>
<path d="M0 0 C-0.33 2.31 -0.66 4.62 -1 7 C-2.0828125 6.814375 -2.0828125 6.814375 -3.1875 6.625 C-7.33975105 7.17863347 -8.43862102 9.84753356 -11 13 C-12.32 13 -13.64 13 -15 13 C-13.57142347 9.63951428 -11.83945402 7.72274139 -9.0625 5.375 C-8.37285156 4.78460938 -7.68320313 4.19421875 -6.97265625 3.5859375 C-2.51231527 0 -2.51231527 0 0 0 Z " fill="#D75B3F" transform="translate(207,200)"/>
<path d="M0 0 C-1.32 0.33 -2.64 0.66 -4 1 C-4 0.34 -4 -0.32 -4 -1 C-4.7425 -0.95875 -5.485 -0.9175 -6.25 -0.875 C-9.13532225 -1.00615101 -10.62533337 -1.38861907 -13 -3 C-13.33 -3.99 -13.66 -4.98 -14 -6 C-20.6 -6.33 -27.2 -6.66 -34 -7 C-34 -7.33 -34 -7.66 -34 -8 C-22.19906357 -10.87049805 -9.52772315 -7.21016887 0 0 Z " fill="#905561" transform="translate(250,204)"/>
<path d="M0 0 C1.41750563 0.11509661 2.83401169 0.24253658 4.25 0.375 C5.03890625 0.44460938 5.8278125 0.51421875 6.640625 0.5859375 C9.085877 1.01507113 10.84836903 1.78600638 13 3 C13 3.66 13 4.32 13 5 C14.8253125 5.1546875 14.8253125 5.1546875 16.6875 5.3125 C20.41069448 5.76219312 22.91662995 6.78382778 26 9 C21.7420732 10.41930893 18.71973173 8.74367293 14.6875 7.25 C13.56698242 6.85167969 13.56698242 6.85167969 12.42382812 6.4453125 C8.12501743 4.89034322 4.05091806 3.13816343 0 1 C0 0.67 0 0.34 0 0 Z " fill="#9D595E" transform="translate(168,404)"/>
<path d="M0 0 C4.17906895 3.55994763 6.68559431 8.08663054 9 13 C9 13.66 9 14.32 9 15 C8.21625 14.814375 7.4325 14.62875 6.625 14.4375 C4.02910225 13.74037734 4.02910225 13.74037734 2 15 C1.67 13.35 1.34 11.7 1 10 C1.66 10 2.32 10 3 10 C3 9.34 3 8.68 3 8 C1.68 7.67 0.36 7.34 -1 7 C-0.34 6.34 0.32 5.68 1 5 C0.67958603 2.39719432 0.67958603 2.39719432 0 0 Z " fill="#D0553F" transform="translate(375,166)"/>
<path d="M0 0 C1.19753906 0.27714844 2.39507812 0.55429687 3.62890625 0.83984375 C13.80256783 3.12653127 23.56646523 4.68808566 34 5 C34 5.33 34 5.66 34 6 C25.75 6 17.5 6 9 6 C9 5.34 9 4.68 9 4 C6.69 4 4.38 4 2 4 C2 3.34 2 2.68 2 2 C1.34 2 0.68 2 0 2 C0 1.34 0 0.68 0 0 Z " fill="#894859" transform="translate(204,373)"/>
<path d="M0 0 C1.75278332 0.22967506 3.50226363 0.48463689 5.25 0.75 C6.22453125 0.88921875 7.1990625 1.0284375 8.203125 1.171875 C11 2 11 2 12.9375 4.03125 C15.78680662 6.75104269 17.87509344 6.59500374 21.75 6.75 C23.50570312 6.83507812 23.50570312 6.83507812 25.296875 6.921875 C26.18890625 6.94765625 27.0809375 6.9734375 28 7 C28 7.33 28 7.66 28 8 C17.87194543 8.48038204 9.41593083 8.75545146 1.4375 1.75 C0.963125 1.1725 0.48875 0.595 0 0 Z " fill="#B4575B" transform="translate(200,266)"/>
<path d="M0 0 C4.60477637 1.33332331 8.16230734 3.18928759 12.125 5.875 C13.13820313 6.55304688 14.15140625 7.23109375 15.1953125 7.9296875 C17.72221664 9.794951 19.85668318 11.71311172 22 14 C19.03 13.34 16.06 12.68 13 12 C12.67 10.68 12.34 9.36 12 8 C10.35 8 8.7 8 7 8 C6.67 6.68 6.34 5.36 6 4 C5.071875 3.7834375 5.071875 3.7834375 4.125 3.5625 C2 3 2 3 0 2 C0 1.34 0 0.68 0 0 Z " fill="#A8565C" transform="translate(313,109)"/>
<path d="M0 0 C3.79496556 0.53858682 5.07707391 1.95451144 7.375 4.9375 C10.34274501 8.51662596 12.42044314 9.85511079 17 11 C19.46799585 12.78716941 19.92322204 13.69986796 20.6875 16.6875 C20.790625 17.450625 20.89375 18.21375 21 19 C16.75353474 17.3034955 13.78305326 14.26582771 10.5 11.1875 C9.93152344 10.66607422 9.36304687 10.14464844 8.77734375 9.60742188 C5.5421988 6.6012141 2.66846128 3.53832733 0 0 Z " fill="#905467" transform="translate(118,367)"/>
<path d="M0 0 C2.76780311 4.15170466 3.49422087 8.43104008 4.625 13.25 C4.85445313 14.17941406 5.08390625 15.10882813 5.3203125 16.06640625 C6.53449543 21.17609274 7.27558954 25.74929396 7 31 C4.65826177 27.07260047 3.91085 22.78653308 2.9375 18.375 C1.88684918 13.04768952 1.88684918 13.04768952 0 8 C-0.13415472 5.3276379 -0.04318541 2.67749512 0 0 Z " fill="#975563" transform="translate(393,204)"/>
<path d="M0 0 C0.33 0 0.66 0 1 0 C2.00303228 4.18063853 2.16588178 8.14412243 2.1875 12.4375 C2.20167969 13.71496094 2.21585937 14.99242187 2.23046875 16.30859375 C2.00606734 19.90281971 1.30528856 22.66196958 0 26 C-0.33 26 -0.66 26 -1 26 C-1.11624638 17.26860536 -0.89115181 8.68873018 0 0 Z " fill="#AF5754" transform="translate(262,223)"/>
<path d="M0 0 C2.64 0 5.28 0 8 0 C3.42374953 2.3217118 -1.25783497 4.39700624 -5.9375 6.5 C-6.83146484 6.90347656 -7.72542969 7.30695313 -8.64648438 7.72265625 C-9.51466797 8.11324219 -10.38285156 8.50382813 -11.27734375 8.90625 C-12.06359131 9.26009766 -12.84983887 9.61394531 -13.65991211 9.97851562 C-16.08740924 11.03815548 -18.53598232 12.02868974 -21 13 C-16.96523536 8.29277458 -11.78937519 5.92979173 -6 4 C-5.67 3.34 -5.34 2.68 -5 2 C-3.35 2 -1.7 2 0 2 C0 1.34 0 0.68 0 0 Z " fill="#734B63" transform="translate(203,135)"/>
<path d="M0 0 C0.33 0.99 0.66 1.98 1 3 C-1.3125 6.1875 -1.3125 6.1875 -4 9 C-4.66 9 -5.32 9 -6 9 C-6 9.66 -6 10.32 -6 11 C-6.70125 11.391875 -7.4025 11.78375 -8.125 12.1875 C-11.86302202 14.5440791 -14.26670095 17.57163521 -17 21 C-17 16.60104877 -14.20378899 14.63492336 -11.3125 11.625 C-10.51682617 10.77808594 -10.51682617 10.77808594 -9.70507812 9.9140625 C-6.53000076 6.54809091 -3.28698175 3.25649027 0 0 Z " fill="#9D5759" transform="translate(129,132)"/>
<path d="M0 0 C0.66 0.33 1.32 0.66 2 1 C-2.72068966 6.74137931 -2.72068966 6.74137931 -4.6875 8.5625 C-6.44796461 10.49062791 -7.14215851 12.55845113 -8 15 C-8.33 15 -8.66 15 -9 15 C-9 13.35 -9 11.7 -9 10 C-13.455 10.495 -13.455 10.495 -18 11 C-15.86345939 9.9317297 -13.72339195 8.86967506 -11.5625 7.8515625 C-5.14512377 4.81740289 -5.14512377 4.81740289 0 0 Z " fill="#AA5557" transform="translate(255,271)"/>
<path d="M0 0 C0.66 0 1.32 0 2 0 C2.06058594 1.03640625 2.12117188 2.0728125 2.18359375 3.140625 C2.26803371 4.51042873 2.35267997 5.88021975 2.4375 7.25 C2.47681641 7.93191406 2.51613281 8.61382812 2.55664062 9.31640625 C2.7957568 13.34421911 2.7957568 13.34421911 3.78515625 17.234375 C3.85605469 17.81703125 3.92695312 18.3996875 4 19 C2.68 20.32 1.36 21.64 0 23 C0 15.41 0 7.82 0 0 Z " fill="#C65548" transform="translate(76,243)"/>
<path d="M0 0 C-5.98178131 4.35923665 -11.9679406 8.71053554 -18 13 C-18 11.35 -18 9.7 -18 8 C-17.030625 7.7525 -16.06125 7.505 -15.0625 7.25 C-13.5465625 6.63125 -13.5465625 6.63125 -12 6 C-11.03122943 3.96756452 -11.03122943 3.96756452 -11 2 C-9.35 2 -7.7 2 -6 2 C-6 1.34 -6 0.68 -6 0 C-2.25 -1.125 -2.25 -1.125 0 0 Z " fill="#A25457" transform="translate(182,149)"/>
<path d="M0 0 C0.66 0 1.32 0 2 0 C0.70005355 4.84460916 -1.14775089 7.72456195 -4.5625 11.375 C-5.36816406 12.24898438 -6.17382812 13.12296875 -7.00390625 14.0234375 C-9 16 -9 16 -10 16 C-10.25 13.75 -10.25 13.75 -10 11 C-8.12755275 8.65944094 -6.62151939 7.27419973 -3.875 6.0625 C-1.25468192 4.57765309 -0.88242489 2.7943455 0 0 Z " fill="#BA594C" transform="translate(259,250)"/>
<path d="M0 0 C0.99 0.33 1.98 0.66 3 1 C3 1.99 3 2.98 3 4 C3.66 4 4.32 4 5 4 C5.84334329 6.22582389 6.67478551 8.45496026 7.5 10.6875 C7.73847656 11.31333984 7.97695313 11.93917969 8.22265625 12.58398438 C9.5412725 16.18192299 10.29329235 19.16520253 10 23 C7.66737027 19.5010554 6.10741879 15.9084779 4.4375 12.0625 C4.12103516 11.34642578 3.80457031 10.63035156 3.47851562 9.89257812 C3.17494141 9.19712891 2.87136719 8.50167969 2.55859375 7.78515625 C2.28329834 7.15488525 2.00800293 6.52461426 1.72436523 5.87524414 C0.97637965 3.93885138 0.46163074 2.022049 0 0 Z " fill="#8F525C" transform="translate(336,192)"/>
<path d="M0 0 C0.9075 0.309375 1.815 0.61875 2.75 0.9375 C5.78000907 2.06503736 5.78000907 2.06503736 8.1875 2.1875 C10 3 10 3 11.625 6.3125 C12.07875 7.529375 12.5325 8.74625 13 10 C13.65254575 11.34030081 14.31584869 12.67555324 15 14 C9.5355194 10.12518648 4.44425263 6.04144908 0 1 C0 0.67 0 0.34 0 0 Z " fill="#A3544E" transform="translate(352,399)"/>
<path d="M0 0 C0.66 0.33 1.32 0.66 2 1 C1.55269531 1.42410156 1.10539063 1.84820312 0.64453125 2.28515625 C-2.4985865 5.33444959 -5.34107078 8.31175055 -7.8125 11.9375 C-8.534375 12.948125 -9.25625 13.95875 -10 15 C-10.66 15 -11.32 15 -12 15 C-12 13.02 -12 11.04 -12 9 C-10.68 9 -9.36 9 -8 9 C-8 8.01 -8 7.02 -8 6 C-7.01 6 -6.02 6 -5 6 C-4.67 5.01 -4.34 4.02 -4 3 C-1.9375 1.3125 -1.9375 1.3125 0 0 Z " fill="#985461" transform="translate(161,163)"/>
<path d="M0 0 C5.26621606 0.59578777 9.94408019 1.81308796 14.9375 3.5625 C15.96327148 3.91344727 15.96327148 3.91344727 17.00976562 4.27148438 C18.67508501 4.84211829 20.33782493 5.42027098 22 6 C22 6.33 22 6.66 22 7 C19.03 7 16.06 7 13 7 C13 6.34 13 5.68 13 5 C11.68 5 10.36 5 9 5 C9 4.34 9 3.68 9 3 C4.545 2.01 4.545 2.01 0 1 C0 0.67 0 0.34 0 0 Z " fill="#965457" transform="translate(278,96)"/>
<path d="M0 0 C2.55375615 3.17494007 4.37447153 6.48103661 6.1875 10.125 C6.71730469 11.17945313 7.24710938 12.23390625 7.79296875 13.3203125 C9 16 9 16 9 18 C8.01 17.67 7.02 17.34 6 17 C5.67 16.01 5.34 15.02 5 14 C4.01 13.34 3.02 12.68 2 12 C0.22439493 7.88807246 -0.21212696 4.45466612 0 0 Z " fill="#A15457" transform="translate(135,307)"/>
<path d="M0 0 C1.61290428 4.0322607 0.37127477 7.02330317 -1 11 C-1.7425 12.4540625 -1.7425 12.4540625 -2.5 13.9375 C-4.29414203 17.60053997 -5.10915872 21.02547737 -6 25 C-8.6068279 18.26569459 -3.94357535 8.93159227 -1.25 2.625 C-0.8375 1.75875 -0.425 0.8925 0 0 Z " fill="#92545E" transform="translate(89,187)"/>
<path d="M0 0 C4.95 0 9.9 0 15 0 C15 0.66 15 1.32 15 2 C9.39 2.66 3.78 3.32 -2 4 C-1.34 2.68 -0.68 1.36 0 0 Z " fill="#B75B4F" transform="translate(214,131)"/>
<path d="M0 0 C4.65469066 3.87890889 8.98640026 7.91396506 13.203125 12.265625 C15.08604947 14.18645107 15.08604947 14.18645107 18 16 C18 17.32 18 18.64 18 20 C17.34 20 16.68 20 16 20 C15.60167969 19.31292969 15.20335937 18.62585938 14.79296875 17.91796875 C12.46590903 14.13079313 9.50921639 11.37068046 6.3125 8.3125 C4.15464346 6.24636957 2.06655656 4.16089295 0 2 C0 1.34 0 0.68 0 0 Z " fill="#8C5566" transform="translate(343,320)"/>
<path d="M0 0 C2.475 0.495 2.475 0.495 5 1 C5.33 2.32 5.66 3.64 6 5 C7.32 5.33 8.64 5.66 10 6 C10 6.99 10 7.98 10 9 C10.99 9 11.98 9 13 9 C13.33 10.65 13.66 12.3 14 14 C9.10565787 9.90473413 4.29279666 5.73642915 0 1 C0 0.67 0 0.34 0 0 Z " fill="#8E5162" transform="translate(260,308)"/>
<path d="M0 0 C1.0209375 0.2165625 1.0209375 0.2165625 2.0625 0.4375 C5.36273082 1.06945909 8.67144426 1.54313941 12 2 C12 2.66 12 3.32 12 4 C13.98 4 15.96 4 18 4 C18 4.33 18 4.66 18 5 C16.2709226 5.02725341 14.54171824 5.04650987 12.8125 5.0625 C11.36810547 5.07990234 11.36810547 5.07990234 9.89453125 5.09765625 C7.11465656 5.00386831 4.67679294 4.75402618 2 4 C0.6875 1.9375 0.6875 1.9375 0 0 Z " fill="#BE5756" transform="translate(192,411)"/>
<path d="M0 0 C5.57275542 -0.37151703 5.57275542 -0.37151703 7.4375 1.25 C7.953125 1.8275 8.46875 2.405 9 3 C11.28421851 4.43535352 13.63156213 5.7040623 16 7 C16 7.66 16 8.32 16 9 C10.0942118 7.44584521 5.02261107 4.40465533 0 1 C0 0.67 0 0.34 0 0 Z " fill="#A35860" transform="translate(152,395)"/>
<path d="M0 0 C4.66666667 4 9.33333333 8 14 12 C13.01 12.495 13.01 12.495 12 13 C9.5249829 11.88568235 7.32116581 10.41849022 5 9 C5 8.01 5 7.02 5 6 C3.35 6 1.7 6 0 6 C0 4.02 0 2.04 0 0 Z " fill="#A35464" transform="translate(304,282)"/>
<path d="M0 0 C5.75 1.625 5.75 1.625 8 5 C9.32 4.34 10.64 3.68 12 3 C10.66666667 5.66666667 9.33333333 8.33333333 8 11 C5.37575087 8.62567936 3.75794238 6.05729109 2 3 C1.34 2.01 0.68 1.02 0 0 Z " fill="#D45C47" transform="translate(312,159)"/>
<path d="M0 0 C4.1695834 1.58539293 8.14419725 3.49702767 12.125 5.5 C12.74503906 5.80808594 13.36507812 6.11617188 14.00390625 6.43359375 C16.79303407 7.83115672 19.40003158 9.26668772 22 11 C19.69 11 17.38 11 15 11 C15 10.34 15 9.68 15 9 C14.360625 8.773125 13.72125 8.54625 13.0625 8.3125 C1.72727273 3.45454545 1.72727273 3.45454545 0 0 Z " fill="#9B5660" transform="translate(180,362)"/>
<path d="M0 0 C3.53372712 1.96318174 6.24479785 4.04070881 9 7 C8.67 7.99 8.34 8.98 8 10 C7.01 9.67 6.02 9.34 5 9 C5 7.68 5 6.36 5 5 C4.01 5 3.02 5 2 5 C2 5.99 2 6.98 2 8 C1.34 8 0.68 8 0 8 C0 5.36 0 2.72 0 0 Z " fill="#C55039" transform="translate(334,312)"/>
<path d="M0 0 C5.05891502 4.79265633 8.71075248 9.90880089 12 16 C8.63152172 14.59282184 6.98056632 13.02241915 4.875 10.0625 C4.37742188 9.37285156 3.87984375 8.68320312 3.3671875 7.97265625 C0 3.11428571 0 3.11428571 0 0 Z " fill="#9C5A5B" transform="translate(188,250)"/>
<path d="M0 0 C5.63860699 0.40275764 8.07346846 2.16478314 12 6 C12.33 6.99 12.66 7.98 13 9 C7.97290493 7.42903279 3.97133531 4.38006951 0 1 C0 0.67 0 0.34 0 0 Z " fill="#A45860" transform="translate(139,386)"/>
<path d="M0 0 C1.32 0.33 2.64 0.66 4 1 C4.33 2.32 4.66 3.64 5 5 C5.66 5 6.32 5 7 5 C8.6875 7.3125 8.6875 7.3125 10 10 C9.67 10.99 9.34 11.98 9 13 C7.4941255 11.21326795 5.9954515 9.42046492 4.5 7.625 C3.6646875 6.62726563 2.829375 5.62953125 1.96875 4.6015625 C0 2 0 2 0 0 Z " fill="#A2585A" transform="translate(108,354)"/>
<path d="M0 0 C2.31 0.33 4.62 0.66 7 1 C7 2.32 7 3.64 7 5 C7.99 5.33 8.98 5.66 10 6 C9.67 6.99 9.34 7.98 9 9 C7.87105124 8.06725891 6.74699124 7.12859878 5.625 6.1875 C4.99851562 5.66542969 4.37203125 5.14335937 3.7265625 4.60546875 C2 3 2 3 0 0 Z " fill="#975056" transform="translate(276,324)"/>
<path d="M0 0 C2.37616467 2.37616467 3.04068181 4.35349521 4.1875 7.5 C4.55230469 8.4796875 4.91710937 9.459375 5.29296875 10.46875 C6 13 6 13 5 15 C0.55928199 9.67113839 -0.60709557 6.92088947 0 0 Z " fill="#B15656" transform="translate(129,292)"/>
<path d="M0 0 C0.99 0.66 1.98 1.32 3 2 C2.67566492 7.35152885 -0.49704824 10.28280043 -4 14 C-4.33 13.01 -4.66 12.02 -5 11 C-4.0409375 10.2265625 -4.0409375 10.2265625 -3.0625 9.4375 C-0.44208319 6.34064377 -0.30610183 3.97932377 0 0 Z " fill="#804F5D" transform="translate(405,380)"/>
<path d="M0 0 C0.33 0.99 0.66 1.98 1 3 C1.66 3 2.32 3 3 3 C4.42500059 6.99000166 5.40075776 10.80530429 6 15 C3.00701346 12.43458297 1.49360038 9.6273152 0 6 C-0.1875 2.625 -0.1875 2.625 0 0 Z " fill="#A2575E" transform="translate(90,320)"/>
<path d="M0 0 C0.99 0.33 1.98 0.66 3 1 C2.3125 3.375 2.3125 3.375 1 6 C-0.64363134 6.72159424 -2.31050386 7.39351421 -4 8 C-4.33 8.99 -4.66 9.98 -5 11 C-5.33 10.34 -5.66 9.68 -6 9 C-4.02 6.03 -2.04 3.06 0 0 Z " fill="#A75653" transform="translate(102,164)"/>
<path d="M0 0 C3.26008643 3.16952847 6.22237877 6.39937989 9 10 C8.01 10 7.02 10 6 10 C6 9.34 6 8.68 6 8 C5.01 8 4.02 8 3 8 C3 7.01 3 6.02 3 5 C2.34 5 1.68 5 1 5 C0.67 5.66 0.34 6.32 0 7 C0 4.69 0 2.38 0 0 Z " fill="#E15A3D" transform="translate(153,339)"/>
<path d="M0 0 C4.88049925 3.9419417 9.0580583 8.11950075 13 13 C10.06236051 11.6866277 8.11282653 10.29845439 5.9375 7.9375 C3.83397394 5.65542531 3.06750466 5.02250155 0 4 C0 2.68 0 1.36 0 0 Z " fill="#5E476F" transform="translate(318,295)"/>
<path d="M0 0 C0.625 1.8125 0.625 1.8125 1 4 C0.01 5.485 0.01 5.485 -1 7 C-1.39013716 8.9896995 -1.73202649 10.99019869 -2 13 C-2.99 12.67 -3.98 12.34 -5 12 C-4.54738642 10.56068883 -4.08767021 9.12361001 -3.625 7.6875 C-3.24214844 6.48673828 -3.24214844 6.48673828 -2.8515625 5.26171875 C-2 3 -2 3 0 0 Z " fill="#804D5D" transform="translate(95,175)"/>
<path d="M0 0 C5.37140063 -0.27312207 8.58683426 -0.40444214 13 3 C14.00959166 3.99031545 15.01139491 4.98873348 16 6 C10.63904723 4.41078475 5.29156027 2.81027062 0 1 C0 0.67 0 0.34 0 0 Z " fill="#A3585D" transform="translate(269,136)"/>
<path d="M0 0 C4.77576339 0.4682121 8.04476345 1.24331998 12 4 C8.52128379 5.15957207 7.65780355 4.77456651 4.3125 3.5625 C3.50425781 3.27503906 2.69601563 2.98757813 1.86328125 2.69140625 C1.24839844 2.46324219 0.63351563 2.23507812 0 2 C0 1.34 0 0.68 0 0 Z " fill="#8C556C" transform="translate(182,409)"/>
<path d="M0 0 C9.17286652 1.33041575 9.17286652 1.33041575 12.625 4.125 C13.07875 4.74375 13.5325 5.3625 14 6 C12.68 6 11.36 6 10 6 C10 5.34 10 4.68 10 4 C9.2575 4.04125 8.515 4.0825 7.75 4.125 C4.88051956 3.99456907 3.39424853 3.53915977 1 2 C0.67 1.34 0.34 0.68 0 0 Z " fill="#AA5149" transform="translate(236,199)"/>
<path d="M0 0 C1.41965142 0.42771549 2.8356224 0.86765543 4.25 1.3125 C5.43335938 1.67794922 5.43335938 1.67794922 6.640625 2.05078125 C9 3 9 3 13 6 C7.06 5.01 7.06 5.01 1 4 C0.67 2.68 0.34 1.36 0 0 Z " fill="#975357" transform="translate(300,103)"/>
<path d="M0 0 C2.64 1.65 5.28 3.3 8 5 C7.67 5.66 7.34 6.32 7 7 C4.69 6.34 2.38 5.68 0 5 C0 3.35 0 1.7 0 0 Z " fill="#C65A46" transform="translate(326,305)"/>
<path d="M0 0 C0.66 0.33 1.32 0.66 2 1 C1.01 2.485 1.01 2.485 0 4 C-0.68177416 5.32567199 -1.35191436 6.65753688 -2 8 C-3.32 8 -4.64 8 -6 8 C-4.55746343 4.63408134 -2.66735273 2.48952921 0 0 Z " fill="#B95A50" transform="translate(198,205)"/>
<path d="M0 0 C0 0.66 0 1.32 0 2 C-0.99 2 -1.98 2 -3 2 C-3 2.99 -3 3.98 -3 5 C-3.66 5.66 -4.32 6.32 -5 7 C-5.33 7.66 -5.66 8.32 -6 9 C-6.99 8.67 -7.98 8.34 -9 8 C-8.01437243 4.68470727 -7.34552581 3.25050621 -4.5 1.1875 C-2 0 -2 0 0 0 Z " fill="#CF5A42" transform="translate(161,111)"/>
<path d="M0 0 C0.33 0.99 0.66 1.98 1 3 C-1.64 5.64 -4.28 8.28 -7 11 C-7 8 -7 8 -6 5 C-4.33333333 4.33333333 -2.66666667 3.66666667 -1 3 C-0.67 2.01 -0.34 1.02 0 0 Z " fill="#9E5A64" transform="translate(387,404)"/>
<path d="M0 0 C1.45742463 -0.08096803 2.91612807 -0.13917774 4.375 -0.1875 C5.18710937 -0.22230469 5.99921875 -0.25710937 6.8359375 -0.29296875 C7.55007813 -0.19628906 8.26421875 -0.09960938 9 0 C9.66 0.99 10.32 1.98 11 3 C9.741875 3.020625 8.48375 3.04125 7.1875 3.0625 C6.47980469 3.07410156 5.77210938 3.08570313 5.04296875 3.09765625 C3 3 3 3 0 2 C0 1.34 0 0.68 0 0 Z " fill="#C35A4D" transform="translate(262,133)"/>
<path d="M0 0 C1.33333333 0.66666667 2.66666667 1.33333333 4 2 C5.051875 2.37125 5.051875 2.37125 6.125 2.75 C8.89478683 4.59652455 9.18480954 6.87510323 10 10 C2.51708428 3.84965831 2.51708428 3.84965831 0 0 Z " fill="#864F61" transform="translate(313,360)"/>
<path d="M0 0 C3.8665284 3.222107 4.88059018 6.14922412 6 11 C5.34 10.67 4.68 10.34 4 10 C4 9.34 4 8.68 4 8 C3.01 7.67 2.02 7.34 1 7 C0.67 4.69 0.34 2.38 0 0 Z " fill="#9C545A" transform="translate(256,212)"/>
<path d="M0 0 C1.485 0.99 1.485 0.99 3 2 C3.6875 5.625 3.6875 5.625 4 9 C2.35 9.33 0.7 9.66 -1 10 C-1 9.01 -1 8.02 -1 7 C-0.01 7 0.98 7 2 7 C1.34 4.69 0.68 2.38 0 0 Z " fill="#D15C44" transform="translate(253,208)"/>
<path d="M0 0 C0.33 0.99 0.66 1.98 1 3 C1.66 3 2.32 3 3 3 C3 3.66 3 4.32 3 5 C4.32 5.33 5.64 5.66 7 6 C5.375 6.8125 5.375 6.8125 3 7 C0.75390165 5.53181864 -1.02378677 3.84147142 -3 2 C-2.01 1.34 -1.02 0.68 0 0 Z " fill="#B35B53" transform="translate(370,412)"/>
<path d="M0 0 C2.64 0 5.28 0 8 0 C3.54341778 2.31082041 0.09639729 4 -5 4 C-5 3.34 -5 2.68 -5 2 C-3.35 2 -1.7 2 0 2 C0 1.34 0 0.68 0 0 Z " fill="#AE5959" transform="translate(203,135)"/>
<path d="M0 0 C1.46484375 1.26953125 2.9296875 2.5390625 4.39453125 3.80859375 C6.10712971 5.20871231 6.10712971 5.20871231 9 6 C9 6.66 9 7.32 9 8 C8.236875 7.67 7.47375 7.34 6.6875 7 C4.00930865 5.82563314 4.00930865 5.82563314 1 6 C0.4465236 3.92446352 0 2.15634036 0 0 Z " fill="#D75943" transform="translate(396,374)"/>
<path d="M0 0 C0 2.31 0 4.62 0 7 C-2.02054804 5.35830472 -4.02043058 3.69088222 -6 2 C-6 1.67 -6 1.34 -6 1 C-1.125 0 -1.125 0 0 0 Z " fill="#CD5A4E" transform="translate(251,292)"/>
<path d="M0 0 C0.33 0 0.66 0 1 0 C1.33 3.63 1.66 7.26 2 11 C1.67 10.01 1.34 9.02 1 8 C0.01 8 -0.98 8 -2 8 C-2 6.35 -2 4.7 -2 3 C-1.34 3 -0.68 3 0 3 C0 2.01 0 1.02 0 0 Z " fill="#E85B35" transform="translate(124,272)"/>
<path d="M0 0 C2.71843438 3.62457917 3.41789544 4.80884715 4 9 C2.02 9.99 2.02 9.99 0 11 C0 7.37 0 3.74 0 0 Z " fill="#B45B52" transform="translate(384,181)"/>
<path d="M0 0 C0 4.64285714 0 4.64285714 -1 7 C-4.0625 9.25 -4.0625 9.25 -7 11 C-5.5140084 6.40693504 -3.14985318 3.56430755 0 0 Z " fill="#94565E" transform="translate(110,153)"/>
<path d="M0 0 C2.93200474 2.85276137 5.64315404 5.65079784 8 9 C7.67 9.66 7.34 10.32 7 11 C6.401875 10.21625 5.80375 9.4325 5.1875 8.625 C3.08914751 5.85425677 3.08914751 5.85425677 0 4 C0 2.68 0 1.36 0 0 Z " fill="#925560" transform="translate(364,150)"/>
<path d="M0 0 C2.97 0.495 2.97 0.495 6 1 C6.33 2.98 6.66 4.96 7 7 C3.17053157 5.54744301 1.87949705 3.57104439 0 0 Z " fill="#D75C46" transform="translate(349,394)"/>
<path d="M0 0 C0.66 0 1.32 0 2 0 C5.20614467 3.40652872 6.74809374 6.51400257 8 11 C4.31993178 7.61831569 2.0214155 4.57478244 0 0 Z " fill="#955563" transform="translate(100,343)"/>
<path d="M0 0 C2.89932357 2.39509338 3.50168276 4.31245243 4 8 C2.0625 7.3125 2.0625 7.3125 0 6 C-0.8125 3.4375 -0.8125 3.4375 -1 1 C-0.67 0.67 -0.34 0.34 0 0 Z " fill="#B75A52" transform="translate(135,378)"/>
<path d="M0 0 C1.17539996 0.92652701 2.34010577 1.86663387 3.5 2.8125 C4.1496875 3.33457031 4.799375 3.85664063 5.46875 4.39453125 C7 6 7 6 7 9 C6.21625 8.360625 5.4325 7.72125 4.625 7.0625 C2.20460719 5.01857687 2.20460719 5.01857687 0 4 C0 2.68 0 1.36 0 0 Z " fill="#975055" transform="translate(381,357)"/>
<path d="M0 0 C3.74525799 3.74525799 3.68909949 7.98270909 4 13 C2 12 2 12 0.875 9.3125 C0.01110926 6.0420565 -0.16013991 3.36293818 0 0 Z " fill="#B95444" transform="translate(135,307)"/>
<path d="M0 0 C1.98 1.65 3.96 3.3 6 5 C4.02 5.99 4.02 5.99 2 7 C0.5393715 4.35261084 0 3.10551666 0 0 Z " fill="#DB5D44" transform="translate(320,299)"/>
<path d="M0 0 C1.14926266 0.95421808 2.29430541 1.91352045 3.4375 2.875 C4.07558594 3.40867187 4.71367187 3.94234375 5.37109375 4.4921875 C7 6 7 6 8 8 C6.35 8 4.7 8 3 8 C1.92474806 5.34771188 0.90543849 2.71631546 0 0 Z " fill="#9F545C" transform="translate(290,268)"/>
<path d="M0 0 C4.41889613 1.35021826 6.34345343 3.26115668 9 7 C7.35 6.67 5.7 6.34 4 6 C4 5.01 4 4.02 4 3 C2.68 2.67 1.36 2.34 0 2 C0 1.34 0 0.68 0 0 Z " fill="#AA585C" transform="translate(281,261)"/>
<path d="M0 0 C0.66 0 1.32 0 2 0 C2 0.66 2 1.32 2 2 C2.66 2 3.32 2 4 2 C4 2.66 4 3.32 4 4 C4.99 4.33 5.98 4.66 7 5 C7.33 5.99 7.66 6.98 8 8 C7.34 8 6.68 8 6 8 C6 7.34 6 6.68 6 6 C5.071875 5.9071875 5.071875 5.9071875 4.125 5.8125 C2 5 2 5 0.75 2.4375 C0.5025 1.633125 0.255 0.82875 0 0 Z " fill="#8D4C5C" transform="translate(350,135)"/>
<path d="M0 0 C2.1875 -0.3125 2.1875 -0.3125 5 0 C7.8125 2.5 7.8125 2.5 10 5 C8.51793505 4.745504 7.03931385 4.47088238 5.5625 4.1875 C4.73878906 4.03667969 3.91507812 3.88585937 3.06640625 3.73046875 C2.38449219 3.48941406 1.70257813 3.24835938 1 3 C0.67 2.01 0.34 1.02 0 0 Z " fill="#BA5F4E" transform="translate(325,118)"/>
<path d="M0 0 C0.99 0.33 1.98 0.66 3 1 C3 1.66 3 2.32 3 3 C4.32 3 5.64 3 7 3 C7.33 4.65 7.66 6.3 8 8 C1.42857143 4 1.42857143 4 0 0 Z " fill="#D65E47" transform="translate(321,366)"/>
<path d="M0 0 C1.5 1.375 1.5 1.375 3 3 C3 3.66 3 4.32 3 5 C2.01 5 1.02 5 0 5 C0 5.66 0 6.32 0 7 C-0.66 7 -1.32 7 -2 7 C-1.125 2.25 -1.125 2.25 0 0 Z " fill="#E45938" transform="translate(132,304)"/>
<path d="M0 0 C0.66 0 1.32 0 2 0 C5.125 6.5 5.125 6.5 4 11 C2.35 7.7 0.7 4.4 -1 1 C-0.67 0.67 -0.34 0.34 0 0 Z " fill="#A05C5F" transform="translate(331,181)"/>
<path d="M0 0 C1.32 0 2.64 0 4 0 C3.49396008 2.16874252 3.00016187 3.99967627 2 6 C1.34 6 0.68 6 0 6 C0 4.02 0 2.04 0 0 Z " fill="#B65851" transform="translate(149,172)"/>
<path d="M0 0 C0.8125 1.6875 0.8125 1.6875 1 4 C-1.4375 6.75 -1.4375 6.75 -4 9 C-2.94124926 5.59687262 -1.99097846 2.98646769 0 0 Z " fill="#8C515A" transform="translate(191,213)"/>
<path d="M0 0 C0 3.20395416 -0.74335022 5.09399739 -2 8 C-2.99 7.01 -3.98 6.02 -5 5 C-3.35 3.35 -1.7 1.7 0 0 Z " fill="#D9553B" transform="translate(323,162)"/>
<path d="M0 0 C0.66 0 1.32 0 2 0 C2 0.99 2 1.98 2 3 C1.34 3 0.68 3 0 3 C-0.33 3.66 -0.66 4.32 -1 5 C-3.5625 5.625 -3.5625 5.625 -6 6 C-4 4 -2 2 0 0 Z " fill="#92565E" transform="translate(136,126)"/>
<path d="M0 0 C4.82360189 -0.19294408 8.49646738 0.24252386 13 2 C13 2.33 13 2.66 13 3 C8.17639811 3.19294408 4.50353262 2.75747614 0 1 C0 0.67 0 0.34 0 0 Z " fill="#D95D42" transform="translate(271,96)"/>
<path d="M0 0 C0.5534764 2.07553648 1 3.84365964 1 6 C-0.32 5.67 -1.64 5.34 -3 5 C-1.125 1.125 -1.125 1.125 0 0 Z " fill="#E6593E" transform="translate(121,362)"/>
<path d="M0 0 C1.65 1.32 3.3 2.64 5 4 C4.67 4.99 4.34 5.98 4 7 C3.01 6.67 2.02 6.34 1 6 C0.67 4.02 0.34 2.04 0 0 Z " fill="#AC554D" transform="translate(338,315)"/>
<path d="M0 0 C2.02054804 1.64169528 4.02043058 3.30911778 6 5 C6 5.33 6 5.66 6 6 C4.35 6 2.7 6 1 6 C0.67 4.02 0.34 2.04 0 0 Z " fill="#AB5A5A" transform="translate(298,276)"/>
<path d="M0 0 C0.33 0.66 0.66 1.32 1 2 C3.02463255 2.65213292 3.02463255 2.65213292 5 3 C4.34 3.66 3.68 4.32 3 5 C1.68 5 0.36 5 -1 5 C-0.67 3.35 -0.34 1.7 0 0 Z " fill="#B65C4C" transform="translate(244,264)"/>
<path d="M0 0 C1.65 1.32 3.3 2.64 5 4 C4.67 4.99 4.34 5.98 4 7 C3.01 7.33 2.02 7.66 1 8 C1.020625 7.236875 1.04125 6.47375 1.0625 5.6875 C1.12942841 2.89814214 1.12942841 2.89814214 0 0 Z " fill="#D85D47" transform="translate(276,256)"/>
<path d="M0 0 C2.79872437 2.52788007 4.45773019 4.20411134 5 8 C2 7 2 7 0 4 C0 2.68 0 1.36 0 0 Z " fill="#B9595A" transform="translate(375,166)"/>
</svg>
